<?xml version="1.0"?>
<svg width="631" height="142" xmlns="http://www.w3.org/2000/svg" xmlns:svg="http://www.w3.org/2000/svg">
 <g>
  <title>Layer 1</title>
  <path id="svg_2" d="m38.97,7c7.61,-3.7 16.36,-3.33 24.61,-3.51c0,3.27 0,6.53 0,9.8c-5.15,0.21 -10.62,-0.35 -15.45,1.83c-3.24,1.53 -4.02,5.42 -4.4,8.63c-0.81,9.39 0.27,18.86 -0.66,28.25c-0.43,4.14 -1.45,8.55 -4.5,11.59c-2.32,2.39 -5.6,3.34 -8.65,4.39c5.15,1.51 10.52,4.53 11.96,10.12c3.19,11.72 0.4,24.02 2.1,35.92c0.44,2.9 1.7,6.16 4.7,7.23c4.75,1.81 9.93,1.38 14.91,1.53c-0.01,3.26 -0.01,6.51 -0.01,9.77c-8.05,0 -16.49,0.29 -24.01,-3.06c-4.97,-2.14 -7.23,-7.6 -8.06,-12.62c-1.61,-10.43 -0.01,-21.03 -1.12,-31.49c-0.49,-3.69 -1.63,-7.78 -4.95,-9.9c-4.73,-2.97 -10.57,-2.45 -15.91,-2.69c0,-3.21 0,-6.43 -0.01,-9.64c5.35,-0.22 11.18,0.31 15.93,-2.63c3.56,-2.3 4.6,-6.76 5.04,-10.71c0.87,-9.91 -0.44,-19.92 0.89,-29.81c0.74,-5.02 2.7,-10.62 7.59,-13z" fill="#6e6e6e"/>
  <path id="svg_3" d="m570.15,3.51c8.33,0.16 17.2,-0.25 24.84,3.63c5.89,3.27 7.25,10.62 7.69,16.77c0.59,8.72 -0.28,17.49 0.52,26.2c0.42,3.91 1.58,8.33 5.17,10.52c4.75,2.83 10.52,2.29 15.82,2.52c0,3.21 0,6.43 0,9.65c-5.31,0.25 -11.1,-0.31 -15.82,2.58c-3.42,2.06 -4.61,6.19 -5.09,9.91c-1.21,10.87 0.66,21.93 -1.38,32.73c-0.9,4.78 -3.42,9.73 -8.16,11.64c-7.42,3.18 -15.69,2.89 -23.59,2.89c0,-3.26 0,-6.52 0,-9.78c5.05,-0.15 10.34,0.33 15.14,-1.59c2.65,-1.04 3.85,-3.87 4.33,-6.48c1.99,-12.18 -1.09,-24.83 2.29,-36.81c1.42,-5.39 6.63,-8.22 11.52,-9.9c-5.01,-1.5 -10.23,-4.44 -11.58,-9.9c-3.31,-12.07 -0.18,-24.78 -2.3,-37.01c-0.48,-2.58 -1.87,-5.23 -4.45,-6.22c-4.75,-1.86 -9.96,-1.4 -14.94,-1.56c-0.01,-3.27 -0.01,-6.53 -0.01,-9.79z" fill="#6e6e6e"/>
  <path id="svg_4" d="m341.46,13.07c3.38,0 6.77,0 10.15,0.01c0,5.77 0,11.53 0.01,17.3c6.9,0.02 13.8,-0.01 20.71,0.03c-0.01,2.6 -0.02,5.19 -0.02,7.79c-6.9,0.02 -13.79,0 -20.69,0.01c0.03,11.6 -0.1,23.2 0.03,34.8c0.25,3.28 0.21,7.96 4,9.24c5.4,1.52 11.12,0.71 16.66,0.87c0,2.82 0.01,5.64 0.02,8.46c-7.88,-0.2 -16.27,1.07 -23.66,-2.37c-5.6,-2.7 -6.88,-9.52 -7.09,-15.15c-0.27,-11.94 -0.02,-23.9 -0.12,-35.85c-2.46,0 -4.91,0 -7.36,-0.01c0,-2.6 0,-5.2 0.01,-7.8c2.45,-0.01 4.9,-0.02 7.35,-0.02c0.02,-5.77 0.02,-11.54 0,-17.31z" fill="#6e6e6e"/>
  <path id="svg_5" d="m525.09,13.07c3.38,0 6.75,0 10.13,0c0,5.77 0,11.54 0,17.31c6.9,0.02 13.8,0.01 20.7,0c0,2.61 0,5.22 0.01,7.82c-6.9,0.01 -13.81,0.01 -20.71,0.01c0,10.59 0.01,21.18 -0.02,31.77c0.09,3.21 -0.03,6.55 1.17,9.6c0.83,2.27 3.41,3.02 5.58,3.29c4.64,0.51 9.32,0.22 13.98,0.24c0,2.83 -0.01,5.67 -0.01,8.5c-7.98,-0.26 -16.52,1.1 -23.94,-2.56c-5.4,-2.81 -6.57,-9.5 -6.78,-15.02c-0.27,-11.93 -0.01,-23.87 -0.12,-35.81c-2.46,-0.01 -4.92,-0.02 -7.37,-0.03c0,-2.6 0,-5.19 0.01,-7.79c2.45,-0.01 4.91,-0.02 7.37,-0.03c0.01,-5.76 0.01,-11.53 0,-17.3z" fill="#6e6e6e"/>
  <path id="svg_6" d="m96.12,30.98c9.78,-3.45 20.66,-2.14 30.13,1.7c-0.01,3.13 -0.02,6.25 -0.01,9.38c-7.61,-3.71 -16.49,-6.11 -24.82,-3.41c-6.72,2.11 -11.23,8.57 -12.36,15.34c-1.18,6.89 -0.96,14.36 2.21,20.71c2.45,4.93 7.3,8.54 12.72,9.49c7.65,1.49 15.4,-0.78 22.25,-4.12c-0.01,3.08 0,6.15 0.01,9.23c-9.27,4.01 -20.01,5.28 -29.7,2.08c-8.7,-2.91 -15.27,-10.68 -17.44,-19.49c-1.89,-7.62 -1.8,-15.8 0.47,-23.33c2.41,-7.99 8.6,-14.83 16.54,-17.58z" fill="#6e6e6e"/>
  <path id="svg_7" d="m161.4,29.49c8.19,-1.35 17.33,-0.22 23.88,5.26c6.63,5.38 9.68,13.98 10.19,22.29c0.7,9.7 -0.85,20.34 -7.54,27.85c-5.39,6.15 -13.89,8.68 -21.88,8.23c-7.75,-0.13 -15.67,-3.48 -20.31,-9.85c-5.17,-6.89 -6.55,-15.83 -6.26,-24.25c0.25,-7.57 2.17,-15.45 7.21,-21.29c3.71,-4.42 9.06,-7.28 14.71,-8.24z" fill="#6e6e6e"/>
  <path id="svg_8" d="m235.08,29.84c7.5,-1.9 16.59,-0.95 22.06,5.03c4.92,5.44 5.93,13.13 5.99,20.18c0.03,12.18 0.01,24.37 -0.01,36.56c-3.35,0 -6.7,0 -10.05,0c-0.08,-12.55 0.09,-25.1 -0.07,-37.64c-0.14,-5.58 -1.53,-12.28 -7.05,-14.95c-6.75,-2.79 -15.56,-1.14 -20.08,4.85c-3.14,3.95 -3.92,9.18 -3.91,14.1c0,11.21 0.03,22.43 0,33.65c-3.37,-0.01 -6.73,-0.01 -10.1,-0.01c-0.02,-20.41 -0.03,-40.81 0,-61.22c3.37,0 6.74,0 10.11,-0.01c0,3.11 0,6.22 -0.03,9.33c3.35,-4.4 7.57,-8.56 13.14,-9.87z" fill="#6e6e6e"/>
  <path id="svg_9" d="m294.81,29.67c9.18,-1.58 18.69,-0.44 27.5,2.46c-0.01,3.17 -0.01,6.34 0.01,9.52c-8.38,-3.74 -18.01,-5.65 -27.01,-3.13c-3.71,0.99 -6.76,4.5 -6.31,8.49c-0.02,2.91 2.23,5.22 4.83,6.2c8.46,3.58 18.4,3.4 26.04,8.92c5.7,4.09 6.85,12.19 4.74,18.5c-2.22,6.28 -8.47,10.13 -14.71,11.54c-10.33,2.37 -21,0.22 -31.01,-2.64c-0.08,-3.49 -0.11,-6.98 -0.13,-10.47c9.52,4.6 20.9,7.9 31.21,4.03c5.79,-1.91 7.22,-10.73 2.06,-14.11c-8.47,-4.88 -19.29,-3.81 -27.33,-9.68c-5.78,-4.26 -6.57,-12.62 -4.33,-18.98c2.19,-6.07 8.37,-9.58 14.44,-10.65z" fill="#6e6e6e"/>
  <path id="svg_10" d="m386.23,33.18c11.08,-3.98 23.94,-6.44 35.08,-1.38c8.4,3.86 11.88,13.53 12.06,22.22c0.26,12.53 0.03,25.06 0.1,37.59c-3.37,0 -6.73,0 -10.09,0c0,-3.02 0.01,-6.05 0.06,-9.07c-3.18,4.25 -7.18,8.21 -12.49,9.52c-7.51,1.93 -16.41,1.8 -22.7,-3.27c-6.85,-5.45 -7.92,-15.61 -5.02,-23.41c2.42,-6.55 9.14,-10.21 15.67,-11.47c8.17,-1.5 16.52,-0.8 24.77,-1.01c-0.33,-5.21 -2.19,-10.91 -7.32,-13.21c-9.68,-4.35 -20.93,-1.71 -30.13,2.66c0.01,-3.05 0.01,-6.11 0.01,-9.17z" fill="#6e6e6e"/>
  <path id="svg_11" d="m477.03,29.85c7.51,-1.92 16.63,-0.96 22.11,5.03c4.91,5.44 5.91,13.12 5.97,20.16c0.03,12.19 0.02,24.38 -0.01,36.57c-3.35,0 -6.7,0 -10.05,0.01c-0.08,-12.53 0.11,-25.06 -0.07,-37.59c-0.12,-5.57 -1.5,-12.31 -7.01,-15c-7.19,-3.03 -16.71,-0.87 -20.93,5.99c-3.31,4.99 -3.14,11.21 -3.11,16.96c0.05,9.88 0.03,19.76 0.02,29.64c-3.38,-0.01 -6.74,-0.01 -10.11,-0.01c-0.04,-20.41 -0.03,-40.81 0,-61.22c3.37,0 6.74,0 10.11,-0.01c0.01,3.11 0,6.22 -0.03,9.33c3.35,-4.4 7.56,-8.54 13.11,-9.86z" fill="#6e6e6e"/>
  <path id="svg_12" d="m162.28,38.29c5.43,-1.7 11.93,-0.74 16.04,3.4c5.12,4.95 6.62,12.42 6.63,19.28c0,6.68 -1.31,13.91 -6.03,18.94c-6.12,6.73 -18.27,6.29 -23.78,-0.99c-5.16,-6.68 -5.63,-15.73 -4.69,-23.8c0.86,-7.01 4.67,-14.56 11.83,-16.83z" fill="#ffffff"/>
  <path id="svg_13" d="m402.48,61.71c6.95,-1.16 14.03,-0.87 21.05,-0.89c-0.06,6.86 -1.13,14.42 -6.45,19.31c-5.45,5.33 -14.88,6.27 -21.19,1.98c-4.42,-3.4 -5.12,-10.1 -2.78,-14.9c1.75,-3.52 5.76,-4.88 9.37,-5.5z" fill="#ffffff"/>
  <path id="svg_14" d="m131.49,106.12c2.41,0 4.82,0 7.23,0.01c0,6.88 -0.01,13.76 0,20.64c1.93,0.01 3.87,0.02 5.8,0.03c0.02,0.53 0.04,1.6 0.06,2.13c-5.06,0.02 -10.11,0.02 -15.16,0.01c0.01,-0.54 0.03,-1.61 0.04,-2.14c2.15,-0.01 4.31,-0.01 6.47,-0.02c0.01,-6.14 0,-12.28 0,-18.42c-1.49,-0.01 -2.98,-0.03 -4.47,-0.04c0.01,-0.55 0.02,-1.65 0.03,-2.2z" fill="#048080"/>
  <path id="svg_15" d="m154.64,106.1c0.77,0.01 2.32,0.04 3.1,0.05c0,0.74 -0.01,2.24 -0.01,2.99c-0.78,0 -2.32,0 -3.09,0c0,-0.76 0,-2.28 0,-3.04z" fill="#048080"/>
  <path id="svg_16" d="m305.64,106.11c0.77,0.01 2.32,0.02 3.1,0.02c0,0.75 -0.01,2.26 -0.01,3.01c-0.78,0 -2.33,0 -3.11,0c0.01,-0.76 0.01,-2.27 0.02,-3.03z" fill="#048080"/>
  <path id="svg_17" d="m320.2,106.15c2.42,-0.02 4.83,-0.03 7.25,-0.04c0.02,6.89 0.01,13.77 0.01,20.66c1.94,0.01 3.89,0.02 5.84,0.04c0,0.53 0,1.59 0,2.13c-5.06,0.02 -10.12,0.02 -15.18,-0.03c0.02,-0.53 0.06,-1.58 0.08,-2.11c2.16,-0.01 4.31,-0.02 6.47,-0.02c-0.01,-6.14 -0.01,-12.27 0,-18.4c-1.49,-0.03 -2.98,-0.05 -4.46,-0.07c0,-0.54 -0.01,-1.62 -0.01,-2.16z" fill="#048080"/>
  <path id="svg_18" d="m343.43,106.1c1.02,0.02 2.05,0.04 3.09,0.06c-0.03,1.02 -0.05,2.05 -0.07,3.09c-0.81,-0.09 -2.42,-0.25 -3.22,-0.33c0.05,-0.71 0.15,-2.11 0.2,-2.82z" fill="#048080"/>
  <path id="svg_19" d="m471.17,106.15c2.42,-0.02 4.85,-0.03 7.28,-0.04c0.02,6.89 0.01,13.77 0.01,20.66c1.93,0.01 3.87,0.02 5.82,0.04c0.01,0.53 0.02,1.59 0.03,2.13c-5.07,0.02 -10.13,0.02 -15.19,-0.03c0.01,-0.53 0.05,-1.58 0.07,-2.11c2.15,-0.01 4.31,-0.02 6.48,-0.03c-0.01,-6.13 -0.01,-12.26 -0.01,-18.39c-1.48,-0.02 -2.97,-0.05 -4.44,-0.07c-0.01,-0.54 -0.04,-1.62 -0.05,-2.16z" fill="#048080"/>
  <path id="svg_20" d="m494.36,106.11c1.03,0.01 2.07,0.02 3.11,0.02c0,0.75 0.01,2.23 0.01,2.97c-1.04,0.02 -2.08,0.05 -3.1,0.07c-0.01,-0.77 -0.01,-2.29 -0.02,-3.06z" fill="#048080"/>
  <path id="svg_21" d="m92.14,108.15c4.44,0.25 10.16,-0.54 13.1,3.64c2.46,4.21 2.31,10.01 -0.39,14.08c-2.96,3.97 -8.42,2.94 -12.72,3.13c-0.02,-6.95 -0.02,-13.9 0.01,-20.85z" fill="#048080"/>
  <path id="svg_22" d="m267.36,108.25c1.1,0 2.2,-0.01 3.3,-0.01c2.59,6.9 5.17,13.8 7.71,20.72c-0.75,-0.01 -2.25,-0.03 -3,-0.05c-0.71,-1.95 -1.43,-3.9 -2.14,-5.85c-2.85,0 -5.71,0 -8.56,0c-0.7,1.95 -1.41,3.89 -2.1,5.83c-0.77,0.03 -2.29,0.07 -3.05,0.09c2.58,-6.92 5.21,-13.83 7.84,-20.73z" fill="#048080"/>
  <path id="svg_23" d="m359.05,112.02c0.79,-1.71 1.65,-3.38 2.8,-4.89c0.15,1.72 0.3,3.44 0.42,5.17c2.18,0.01 4.37,0.03 6.56,0.05c-0.01,0.54 -0.02,1.64 -0.03,2.18c-2.21,0.01 -4.42,0.02 -6.62,0.03c0.02,3.72 -0.35,7.49 0.29,11.17c1.8,2.21 5.49,0.55 7.97,1.24c-2.47,2.81 -7.47,3.21 -10.26,0.75c-1.57,-3.92 -0.6,-8.39 -0.86,-12.53c-1.09,-0.76 -2.19,-1.52 -3.27,-2.29c0.99,-0.29 1.99,-0.59 3,-0.88z" fill="#048080"/>
  <path id="svg_24" d="m413.53,111.54c2.39,-4.83 10.45,-4.8 12.84,0.02c1.77,3.55 1.77,7.77 0.92,11.57c-0.57,3.1 -3.32,4.92 -5.51,6.85c1.94,1.82 4.4,2.84 6.93,3.59c-1.89,1.54 -4.67,1.91 -6.71,0.47c-1.36,-1.25 -2.28,-2.88 -3.33,-4.37c-2.36,-1.31 -5.14,-2.68 -5.8,-5.57c-1.2,-4.06 -1.23,-8.71 0.66,-12.56z" fill="#048080"/>
  <path id="svg_25" d="m510.05,111.66c0.86,-1.55 1.77,-3.07 2.79,-4.52c0.15,1.72 0.29,3.44 0.42,5.16c2.18,0.01 4.37,0.03 6.56,0.04c-0.01,0.55 -0.02,1.65 -0.02,2.19c-2.22,0.01 -4.43,0.02 -6.63,0.03c0.02,3.71 -0.36,7.48 0.29,11.16c1.75,2.24 5.47,0.54 7.94,1.22c-2.41,2.85 -7.39,3.22 -10.18,0.83c-1.68,-4.05 -0.6,-8.7 -0.84,-12.99c-0.82,-0.17 -2.47,-0.5 -3.3,-0.67c0.98,-0.82 1.97,-1.64 2.97,-2.45z" fill="#048080"/>
  <path id="svg_26" d="m95.1,110.39c2.79,0.57 6.65,0.27 7.98,3.4c1.29,3.15 1.25,6.96 -0.25,10.04c-1.42,2.88 -5.05,2.5 -7.73,2.98c-0.05,-5.48 -0.05,-10.95 0,-16.42z" fill="#ffffff"/>
  <path id="svg_27" d="m268.98,110.67c1.18,3.37 2.35,6.74 3.51,10.11c-2.35,0 -4.69,0.01 -7.02,0.02c1.18,-3.37 2.35,-6.75 3.51,-10.13z" fill="#ffffff"/>
  <path id="svg_28" d="m417.37,111.22c2.05,-1.79 5.66,-0.75 6.45,1.88c1.29,3.64 1.27,7.87 -0.19,11.46c-1.33,3.4 -6.76,2.86 -7.63,-0.61c-1.19,-4.06 -1.64,-9.35 1.37,-12.73z" fill="#ffffff"/>
  <path id="svg_29" d="m111.29,116.25c1.78,-5.1 9.87,-5.7 12.68,-1.27c0.95,1.94 1.2,4.12 1.7,6.19c-4.25,0.03 -8.51,0.02 -12.76,0.19c1.1,2.01 1.4,5.21 4.12,5.74c2.93,-0.1 5.58,-1.71 8.47,-2.15c-2.23,3.82 -7.1,5.65 -11.15,3.52c-4.2,-2.31 -4.48,-8.16 -3.06,-12.22z" fill="#048080"/>
  <path id="svg_30" d="m150.01,112.34c2.57,-0.02 5.14,-0.02 7.71,-0.03c0,4.82 0.01,9.64 0.02,14.46c1.94,0.01 3.88,0.02 5.83,0.04c0,0.53 -0.01,1.6 -0.01,2.13c-5.04,0.01 -10.08,0.01 -15.12,-0.01c0.01,-0.53 0.01,-1.6 0.01,-2.13c2.16,-0.01 4.33,-0.01 6.49,-0.02c0,-4.07 0.01,-8.14 0,-12.21c-1.63,-0.02 -3.27,-0.03 -4.9,-0.04c-0.01,-0.55 -0.02,-1.65 -0.03,-2.19z" fill="#048080"/>
  <path id="svg_31" d="m179.22,114.11c0.46,-1.73 2.45,-1.72 3.79,-2.36c-2.01,5.84 -4.56,11.47 -6.87,17.2c-0.83,0 -2.47,0.01 -3.3,0.01c-2.25,-5.72 -4.74,-11.35 -6.67,-17.2c0.73,0.27 2.18,0.81 2.91,1.09c2.68,4.15 3.68,9.15 5.4,13.74c1.53,-4.18 2.84,-8.45 4.74,-12.48z" fill="#048080"/>
  <path id="svg_32" d="m186.87,116.08c1.69,-4.44 8.05,-5.23 11.48,-2.42c2.12,1.88 2.14,4.97 2.84,7.52c-4.23,0.03 -8.45,0.02 -12.67,0.1c0.93,2.26 1.44,5.71 4.52,5.89c2.67,-0.36 5.09,-1.68 7.63,-2.52c-1.8,5.79 -10.87,6.35 -13.55,1.06c-1.41,-2.97 -1.44,-6.58 -0.25,-9.63z" fill="#048080"/>
  <path id="svg_33" d="m206.79,112.23c0.63,0.04 1.9,0.11 2.53,0.15c0.12,0.81 0.37,2.45 0.49,3.26c2.08,-3.07 5.54,-3.87 9.05,-3.69c0.04,0.65 0.12,1.93 0.16,2.58c-2.71,0.31 -6.37,-0.24 -7.83,2.71c-1.66,3.65 -0.87,7.83 -1.04,11.71c-0.69,0 -2.07,-0.01 -2.76,-0.01c0.1,-5.58 0.08,-11.16 -0.6,-16.71z" fill="#048080"/>
  <path id="svg_34" d="m222.76,112.32c0.74,0 2.21,-0.01 2.95,-0.01c1.89,4.55 3.76,9.1 5.61,13.67c1.78,-4.54 3.58,-9.08 5.36,-13.63c0.98,-0.02 1.96,-0.03 2.95,-0.05c-2.3,5.45 -4.58,10.91 -6.85,16.37c-1.04,2.2 -1.9,4.74 -4.01,6.17c-1.6,1.2 -3.59,0.24 -5.25,-0.2c2.67,-1.23 5.18,-2.85 6.73,-5.43c-2.63,-5.57 -5.03,-11.25 -7.49,-16.89z" fill="#048080"/>
  <path id="svg_35" d="m284.37,112.48c2.48,-1.11 4.92,0.29 6.97,1.61c1,-0.82 2.03,-1.61 3.08,-2.38c-0.04,6.42 0.53,12.89 -0.26,19.27c-1.11,6.3 -11.44,5.94 -12.87,-0.12c2.86,0.61 5.58,2.87 8.6,2.2c1.97,-1.67 1.68,-4.57 2.33,-6.85c-2.35,1.38 -4.94,3.45 -7.83,2.33c-3.15,-0.95 -3.81,-4.69 -3.84,-7.53c-0.04,-3.12 0.42,-7.31 3.82,-8.53z" fill="#048080"/>
  <path id="svg_36" d="m301.01,112.33c2.57,-0.01 5.14,-0.01 7.71,-0.01c0,4.81 0.01,9.63 0.01,14.45c1.94,0.01 3.89,0.02 5.83,0.04c0,0.53 0,1.6 0,2.14c-5.05,0 -10.1,0 -15.14,-0.01c0.01,-0.54 0.04,-1.61 0.05,-2.14c2.15,-0.01 4.3,-0.01 6.46,-0.02c0,-4.07 0,-8.14 0,-12.21c-1.64,-0.02 -3.27,-0.03 -4.9,-0.05c-0.01,-0.54 -0.01,-1.64 -0.02,-2.19z" fill="#048080"/>
  <path id="svg_37" d="m338.64,112.38c2.61,-0.03 5.22,-0.05 7.83,-0.07c0.01,4.82 0.01,9.64 0.01,14.47c1.94,0 3.88,0.01 5.82,0.02c0.01,0.54 0.02,1.6 0.02,2.13c-5.07,0.03 -10.13,0.03 -15.2,-0.02c0.03,-0.53 0.07,-1.58 0.1,-2.11c2.15,-0.01 4.3,-0.02 6.46,-0.02c0,-4.08 -0.01,-8.15 -0.02,-12.22c-1.61,-0.01 -3.21,-0.02 -4.81,-0.02c-0.05,-0.54 -0.16,-1.62 -0.21,-2.16z" fill="#048080"/>
  <path id="svg_38" d="m373.76,112.33c0.73,-0.01 2.2,-0.02 2.94,-0.02c1.89,4.55 3.76,9.11 5.62,13.68c1.97,-4.31 2.93,-9.16 5.59,-13.12c0.68,-0.28 2.04,-0.85 2.72,-1.14c-1.9,5.56 -4.41,10.88 -6.59,16.33c-1.13,2.41 -2.02,5.2 -4.29,6.79c-1.59,1.18 -3.58,0.23 -5.22,-0.21c2.68,-1.21 5.16,-2.86 6.71,-5.42c-2.61,-5.58 -5.02,-11.25 -7.48,-16.89z" fill="#048080"/>
  <path id="svg_39" d="m432.24,112.32c0.69,-0.01 2.05,-0.03 2.74,-0.04c0.05,4.22 -0.3,8.48 0.31,12.67c0.48,3.56 6.49,2.57 7.01,-0.62c0.8,-3.95 0.34,-8.01 0.41,-12.01c0.7,0 2.1,0 2.8,-0.01c0,5.79 0.06,11.58 -0.07,17.36c-1.04,-0.8 -2.05,-1.63 -3.03,-2.48c-2.62,2.24 -7.52,3.4 -9.52,-0.17c-1.35,-4.76 -0.49,-9.82 -0.65,-14.7z" fill="#048080"/>
  <path id="svg_40" d="m450.44,116.36c2,-4.44 8.16,-5.82 11.84,-2.65c2.05,2.6 1.03,6.23 1.4,9.29c-0.34,2.58 1.54,4.49 2.81,6.5c-2.27,-0.33 -4.57,-0.83 -5.94,-2.83c-1.87,1.48 -4,3.16 -6.57,2.56c-4.55,-0.44 -5.13,-7.7 -1.17,-9.42c2.72,-1.02 5.71,-0.92 8.57,-1.27c-0.99,-1.56 -1.12,-4.56 -3.56,-4.32c-2.03,-0.43 -3.34,1.47 -4.79,2.49c-0.65,-0.08 -1.94,-0.26 -2.59,-0.35z" fill="#048080"/>
  <path id="svg_41" d="m489.12,114.39c1.3,-3.41 5.58,-1.67 8.35,-2.14c-0.01,4.84 0,9.68 0,14.53c1.94,0 3.89,0.01 5.84,0.02c0,0.54 0,1.6 0.01,2.14c-5.07,0.02 -10.14,0.02 -15.21,-0.03c0.03,-0.53 0.07,-1.58 0.1,-2.11c2.15,-0.01 4.3,-0.02 6.46,-0.03c0,-4.04 0,-8.09 0.03,-12.14c-1.87,-0.06 -3.73,-0.14 -5.58,-0.24z" fill="#048080"/>
  <path id="svg_42" d="m524.75,112.32c0.73,0 2.21,0 2.94,-0.01c1.89,4.55 3.76,9.11 5.62,13.67c1.96,-4.31 2.94,-9.14 5.59,-13.1c0.68,-0.29 2.04,-0.87 2.72,-1.16c-1.89,5.56 -4.41,10.86 -6.58,16.3c-1.12,2.43 -2.01,5.24 -4.3,6.83c-1.59,1.2 -3.58,0.21 -5.23,-0.22c2.68,-1.2 5.19,-2.83 6.72,-5.41c-2.62,-5.58 -5.01,-11.26 -7.48,-16.9z" fill="#048080"/>
  <path id="svg_43" d="m112.98,119.05c1.11,-2.06 2.07,-5.18 5.01,-4.89c2.96,-0.36 3.84,2.88 4.95,4.9c-3.32,0.06 -6.64,0.06 -9.96,-0.01z" fill="#ffffff"/>
  <path id="svg_44" d="m188.45,119.05c1.1,-2.23 2.34,-5.43 5.45,-4.89c2.76,-0.07 3.41,3.01 4.55,4.89c-3.33,0.08 -6.66,0.08 -10,0z" fill="#ffffff"/>
  <path id="svg_45" d="m286.31,114.28c5.22,-0.99 6.42,6.13 4.8,9.75c-1.62,3.62 -6.82,3.8 -7.28,-0.07c-0.47,-3.14 -1.22,-8.25 2.48,-9.68z" fill="#ffffff"/>
  <path id="svg_46" d="m454.5,121.54c2.2,-0.7 4.55,-0.7 6.83,-0.92c-0.77,2.7 -1.64,6.69 -5.26,6.51c-3.14,0.68 -3.89,-4.18 -1.57,-5.59z" fill="#ffffff"/>
 </g>

</svg>